<svg width="20" height="20" viewBox="0 0 20 20" fill="none" xmlns="http://www.w3.org/2000/svg">
<g id="Frame">
<g id="Group">
<path id="Vector" d="M8.23056 9.67472C9.407 9.67472 10.4257 9.25274 11.2581 8.42022C12.0905 7.58787 12.5125 6.56941 12.5125 5.39282C12.5125 4.21659 12.0905 3.19802 11.258 2.36536C10.4255 1.53311 9.40687 1.11118 8.23056 1.11118C7.05394 1.11118 6.03545 1.53311 5.2031 2.3655C4.37075 3.19789 3.94863 4.21648 3.94863 5.39282C3.94863 6.56941 4.37071 7.58801 5.20324 8.42039C6.03576 9.25264 7.05436 9.67472 8.23056 9.67472ZM15.7227 14.7813C15.6987 14.4349 15.6502 14.057 15.5787 13.658C15.5065 13.2559 15.4136 12.8759 15.3024 12.5285C15.1875 12.1695 15.0313 11.815 14.8382 11.4752C14.6377 11.1226 14.4022 10.8155 14.138 10.5628C13.8617 10.2985 13.5234 10.086 13.1323 9.93089C12.7425 9.77673 12.3105 9.6986 11.8484 9.6986C11.6669 9.6986 11.4914 9.77305 11.1525 9.99374C10.9115 10.1506 10.6699 10.3064 10.4275 10.4611C10.1946 10.6095 9.87915 10.7485 9.48947 10.8744C9.1093 10.9974 8.7233 11.0598 8.3423 11.0598C7.96133 11.0598 7.57543 10.9974 7.19484 10.8744C6.80561 10.7486 6.49013 10.6096 6.25749 10.4612C5.98771 10.2888 5.74361 10.1315 5.53188 9.99357C5.19334 9.77291 5.01768 9.69843 4.83623 9.69843C4.37398 9.69843 3.94214 9.77669 3.55246 9.93107C3.16156 10.0858 2.82316 10.2984 2.5466 10.563C2.28254 10.8158 2.04696 11.1227 1.84675 11.4752C1.65377 11.815 1.49752 12.1694 1.38248 12.5287C1.27137 12.876 1.17849 13.2559 1.10634 13.658C1.03485 14.0564 0.986309 14.4344 0.962281 14.7817C0.93838 15.1311 0.926533 15.4812 0.926761 15.8314C0.926761 16.7595 1.22176 17.5107 1.80349 18.0648C2.37803 18.6115 3.13823 18.8889 4.06269 18.8889H12.6227C13.5472 18.8889 14.3071 18.6117 14.8818 18.0648C15.4637 17.5111 15.7587 16.7597 15.7587 15.8313C15.7585 15.4731 15.7465 15.1198 15.7227 14.7813Z" fill="#2BF6FA"/>
</g>
</g>
</svg>
