<svg width="22" height="22" viewBox="0 0 22 22" fill="none" xmlns="http://www.w3.org/2000/svg">
<g id="Frame" clip-path="url(#clip0_41_582)">
<g id="Group">
<path id="Vector" d="M21.2971 20.0385L16.0611 14.5928C17.4078 12.9949 18.146 10.9722 18.145 8.88249C18.145 3.98476 14.1602 0 9.2625 0C4.36477 0 0.380005 3.98476 0.380005 8.88249C0.380005 13.7802 4.36477 17.765 9.2625 17.765C11.1012 17.765 12.8533 17.2104 14.3514 16.1576L19.6272 21.6447C19.8477 21.8737 20.1443 22 20.4622 22C20.763 22 21.0484 21.8853 21.2651 21.6768C21.4862 21.4636 21.6138 21.1714 21.6198 20.8643C21.6258 20.5572 21.5097 20.2602 21.2971 20.0385ZM9.2625 2.31717C12.8827 2.31717 15.8278 5.2623 15.8278 8.88249C15.8278 12.5027 12.8827 15.4478 9.2625 15.4478C5.6423 15.4478 2.69718 12.5027 2.69718 8.88249C2.69718 5.2623 5.6423 2.31717 9.2625 2.31717Z" fill="#1E1E1E"/>
</g>
</g>
<defs>
<clipPath id="clip0_41_582">
<rect width="22" height="22" fill="white"/>
</clipPath>
</defs>
</svg>
