<svg width="18" height="18" viewBox="0 0 18 18" fill="none" xmlns="http://www.w3.org/2000/svg">
<g id="Frame" clip-path="url(#clip0_220_477)">
<g id="Group">
<path id="Vector" d="M5.143 0.857143C5.143 0.383756 4.75924 0 4.28585 0C3.81247 0 3.42871 0.383756 3.42871 0.857143V1.71429C3.42871 2.18767 3.81247 2.57143 4.28585 2.57143C4.75924 2.57143 5.143 2.18767 5.143 1.71429V0.857143Z" fill="#2BF6FA"/>
<path id="Vector_2" d="M14.5717 0.857143C14.5717 0.383756 14.188 0 13.7146 0C13.2412 0 12.8574 0.383756 12.8574 0.857143V1.71429C12.8574 2.18767 13.2412 2.57143 13.7146 2.57143C14.188 2.57143 14.5717 2.18767 14.5717 1.71429V0.857143Z" fill="#2BF6FA"/>
<path id="Vector_3" d="M0.428711 6.42856V16.2857C0.428711 16.7404 0.609323 17.1764 0.930814 17.4979C1.2523 17.8194 1.68834 18 2.143 18H15.8573C16.3119 18 16.748 17.8194 17.0695 17.4979C17.391 17.1764 17.5716 16.7404 17.5716 16.2857V6.42856H0.428711ZM5.57157 15C5.57157 15.2273 5.48126 15.4453 5.32052 15.6061C5.15977 15.7668 4.94175 15.8571 4.71443 15.8571H3.85728C3.62995 15.8571 3.41194 15.7668 3.25119 15.6061C3.09045 15.4453 3.00014 15.2273 3.00014 15V14.1428C3.00014 13.9155 3.09045 13.6975 3.25119 13.5368C3.41194 13.376 3.62995 13.2857 3.85728 13.2857H4.71443C4.94175 13.2857 5.15977 13.376 5.32052 13.5368C5.48126 13.6975 5.57157 13.9155 5.57157 14.1428V15ZM5.57157 10.2857C5.57157 10.513 5.48126 10.7311 5.32052 10.8918C5.15977 11.0525 4.94175 11.1428 4.71443 11.1428H3.85728C3.62995 11.1428 3.41194 11.0525 3.25119 10.8918C3.09045 10.7311 3.00014 10.513 3.00014 10.2857V9.42856C3.00014 9.20123 3.09045 8.98322 3.25119 8.82247C3.41194 8.66173 3.62995 8.57142 3.85728 8.57142H4.71443C4.94175 8.57142 5.15977 8.66173 5.32052 8.82247C5.48126 8.98322 5.57157 9.20123 5.57157 9.42856V10.2857ZM10.2859 15C10.2859 15.2273 10.1955 15.4453 10.0348 15.6061C9.87406 15.7668 9.65604 15.8571 9.42871 15.8571H8.57157C8.34424 15.8571 8.12622 15.7668 7.96548 15.6061C7.80473 15.4453 7.71443 15.2273 7.71443 15V14.1428C7.71443 13.9155 7.80473 13.6975 7.96548 13.5368C8.12622 13.376 8.34424 13.2857 8.57157 13.2857H9.42871C9.65604 13.2857 9.87406 13.376 10.0348 13.5368C10.1955 13.6975 10.2859 13.9155 10.2859 14.1428V15ZM10.2859 10.2857C10.2859 10.513 10.1955 10.7311 10.0348 10.8918C9.87406 11.0525 9.65604 11.1428 9.42871 11.1428H8.57157C8.34424 11.1428 8.12622 11.0525 7.96548 10.8918C7.80473 10.7311 7.71443 10.513 7.71443 10.2857V9.42856C7.71443 9.20123 7.80473 8.98322 7.96548 8.82247C8.12622 8.66173 8.34424 8.57142 8.57157 8.57142H9.42871C9.65604 8.57142 9.87406 8.66173 10.0348 8.82247C10.1955 8.98322 10.2859 9.20123 10.2859 9.42856V10.2857ZM15.0001 15C15.0001 15.2273 14.9098 15.4453 14.7491 15.6061C14.5883 15.7668 14.3703 15.8571 14.143 15.8571H13.2859C13.0585 15.8571 12.8405 15.7668 12.6798 15.6061C12.519 15.4453 12.4287 15.2273 12.4287 15V14.1428C12.4287 13.9155 12.519 13.6975 12.6798 13.5368C12.8405 13.376 13.0585 13.2857 13.2859 13.2857H14.143C14.3703 13.2857 14.5883 13.376 14.7491 13.5368C14.9098 13.6975 15.0001 13.9155 15.0001 14.1428V15ZM15.0001 10.2857C15.0001 10.513 14.9098 10.7311 14.7491 10.8918C14.5883 11.0525 14.3703 11.1428 14.143 11.1428H13.2859C13.0585 11.1428 12.8405 11.0525 12.6798 10.8918C12.519 10.7311 12.4287 10.513 12.4287 10.2857V9.42856C12.4287 9.20123 12.519 8.98322 12.6798 8.82247C12.8405 8.66173 13.0585 8.57142 13.2859 8.57142H14.143C14.3703 8.57142 14.5883 8.66173 14.7491 8.82247C14.9098 8.98322 15.0001 9.20123 15.0001 9.42856V10.2857ZM17.5716 5.57142V2.99999C17.5716 2.54533 17.391 2.1093 17.0695 1.78781C16.748 1.46632 16.3119 1.28571 15.8573 1.28571H15.4287V1.71428C15.4287 2.65971 14.6599 3.42856 13.7144 3.42856C12.769 3.42856 12.0001 2.65971 12.0001 1.71428V1.28571H6.00014V1.71428C6.00014 2.65971 5.23128 3.42856 4.28585 3.42856C3.34043 3.42856 2.57157 2.65971 2.57157 1.71428V1.28571H2.143C1.68834 1.28571 1.2523 1.46632 0.930814 1.78781C0.609323 2.1093 0.428711 2.54533 0.428711 2.99999V5.57142H17.5716Z" fill="#2BF6FA"/>
</g>
</g>
<defs>
<clipPath id="clip0_220_477">
<rect width="18" height="18" fill="white"/>
</clipPath>
</defs>
</svg>
