<svg width="30" height="30" viewBox="0 0 30 30" fill="none" xmlns="http://www.w3.org/2000/svg">
<path d="M24.0006 4.90015C23.7188 4.90787 23.4511 5.02476 23.2539 5.22615L5.21391 23.2262C5.10896 23.3256 5.02499 23.445 4.96696 23.5774C4.90894 23.7098 4.87803 23.8525 4.87608 23.9971C4.87412 24.1416 4.90115 24.2851 4.95556 24.419C5.00998 24.5529 5.09069 24.6746 5.19291 24.7768C5.29489 24.8793 5.41636 24.9603 5.55015 25.015C5.68395 25.0697 5.82736 25.0971 5.9719 25.0955C6.11645 25.0939 6.25921 25.0633 6.39175 25.0056C6.52429 24.9479 6.64392 24.8642 6.74358 24.7595L24.7849 6.75948C25.4936 6.07215 24.9862 4.87182 24.0006 4.90015Z" fill="white"/>
<path d="M5.98778 4.87744C5.01578 4.87744 4.53512 6.05944 5.23278 6.73677L23.2328 24.7784C23.3321 24.8834 23.4515 24.9674 23.5839 25.0254C23.7163 25.0834 23.8589 25.1143 24.0034 25.1162C24.1479 25.1181 24.2914 25.0911 24.4252 25.0366C24.5591 24.9821 24.6807 24.9014 24.7828 24.7991C24.8851 24.6972 24.966 24.5758 25.0207 24.4421C25.0754 24.3084 25.1027 24.1651 25.1011 24.0206C25.0995 23.8762 25.0689 23.7335 25.0113 23.6011C24.9536 23.4686 24.8701 23.3491 24.7654 23.2494L6.76545 5.20711C6.66444 5.10297 6.54357 5.02014 6.41 4.96352C6.27643 4.9069 6.13286 4.87763 5.98778 4.87744Z" fill="white"/>
</svg>
