<svg width="22" height="22" viewBox="0 0 22 22" fill="none" xmlns="http://www.w3.org/2000/svg">
<g clip-path="url(#clip0_602_48)">
<path d="M15.8125 0H7.5625C6.10774 0 4.81251 1.33445 4.81251 2.75002L4.01776 2.76857C2.56369 2.76857 1.375 4.08443 1.375 5.5V19.25C1.375 20.6656 2.67026 22 4.12502 22H14.4375C15.8922 22 17.1875 20.6656 17.1875 19.25H17.875C19.3298 19.25 20.625 17.9156 20.625 16.5V5.51651L15.8125 0ZM14.4375 20.625H4.12502C3.40314 20.625 2.75002 19.9506 2.75002 19.25V5.5C2.75002 4.79945 3.33784 4.14769 4.05972 4.14769L4.81251 4.12501V16.5C4.81251 17.9156 6.10774 19.25 7.5625 19.25H15.8125C15.8125 19.9506 15.1594 20.625 14.4375 20.625ZM19.25 16.5C19.25 17.2006 18.5969 17.875 17.875 17.875H7.5625C6.84062 17.875 6.1875 17.2006 6.1875 16.5V2.75002C6.1875 2.04947 6.84062 1.37502 7.5625 1.37502H14.4375C14.4265 2.95834 14.4375 4.14221 14.4375 4.14221C14.4375 5.57084 15.7231 6.87502 17.1875 6.87502H19.25V16.5ZM17.1875 5.5C16.4553 5.5 15.8125 4.1697 15.8125 3.45607V1.39493L19.25 5.5H17.1875ZM15.8125 9.6374H9.62502C9.24552 9.6374 8.93752 9.94471 8.93752 10.3242C8.93752 10.7037 9.24552 11.011 9.62502 11.011H15.8125C16.192 11.011 16.5 10.7037 16.5 10.3242C16.5 9.94471 16.192 9.6374 15.8125 9.6374ZM15.8125 13.0715H9.62502C9.24552 13.0715 8.93752 13.3788 8.93752 13.7582C8.93752 14.1378 9.24552 14.4451 9.62502 14.4451H15.8125C16.192 14.4451 16.5 14.1378 16.5 13.7582C16.5 13.3788 16.192 13.0715 15.8125 13.0715Z" fill="white"/>
</g>
<defs>
<clipPath id="clip0_602_48">
<rect width="22" height="22" fill="white"/>
</clipPath>
</defs>
</svg>
