<svg width="18" height="18" viewBox="0 0 18 18" fill="none" xmlns="http://www.w3.org/2000/svg">
<g id="Frame" clip-path="url(#clip0_220_483)">
<g id="Group">
<path id="Vector" d="M12.5986 0H5.40051C2.42381 0 0.00195312 2.42185 0.00195312 5.39856V9.59744C0.00195312 12.4737 2.26275 14.8316 5.10059 14.9879V17.4904C5.10059 17.7715 5.32973 18 5.61136 18C5.74602 18 5.87349 17.9466 5.96976 17.8503L6.53241 17.2877C8.00982 15.81 9.97459 14.996 12.0644 14.996H12.5986C15.5753 14.996 17.9972 12.5741 17.9972 9.59744V5.39856C17.9972 2.42185 15.5753 0 12.5986 0ZM5.10059 8.69768C4.43897 8.69768 3.90091 8.15962 3.90091 7.498C3.90091 6.83638 4.43897 6.29832 5.10059 6.29832C5.76222 6.29832 6.30027 6.83638 6.30027 7.498C6.30027 8.15962 5.76192 8.69768 5.10059 8.69768ZM8.99955 8.69768C8.33793 8.69768 7.79987 8.15962 7.79987 7.498C7.79987 6.83638 8.33793 6.29832 8.99955 6.29832C9.66118 6.29832 10.1992 6.83638 10.1992 7.498C10.1992 8.15962 9.66088 8.69768 8.99955 8.69768ZM12.8985 8.69768C12.2369 8.69768 11.6988 8.15962 11.6988 7.498C11.6988 6.83638 12.2369 6.29832 12.8985 6.29832C13.5601 6.29832 14.0982 6.83638 14.0982 7.498C14.0982 8.15962 13.5598 8.69768 12.8985 8.69768Z" fill="#2BF6FA"/>
</g>
</g>
<defs>
<clipPath id="clip0_220_483">
<rect width="18" height="18" fill="white"/>
</clipPath>
</defs>
</svg>
