<svg width="32" height="32" viewBox="0 0 32 32" fill="none" xmlns="http://www.w3.org/2000/svg">
<g id="Frame">
<g id="Group">
<path id="Vector" d="M25.8438 4.75H20.6875V3.8125C20.6875 2.25918 19.4283 1 17.875 1H14.125C12.5717 1 11.3125 2.25918 11.3125 3.8125V4.75H6.15625C4.86186 4.75 3.8125 5.79936 3.8125 7.09375V8.96875C3.8125 9.48654 4.23221 9.90625 4.75 9.90625H27.25C27.7678 9.90625 28.1875 9.48654 28.1875 8.96875V7.09375C28.1875 5.79936 27.1381 4.75 25.8438 4.75ZM13.1875 3.8125C13.1875 3.2957 13.6082 2.875 14.125 2.875H17.875C18.3918 2.875 18.8125 3.2957 18.8125 3.8125V4.75H13.1875V3.8125ZM5.59164 11.7812C5.55199 11.7813 5.51276 11.7893 5.47632 11.8049C5.43987 11.8205 5.40698 11.8434 5.37962 11.8721C5.35226 11.9008 5.33101 11.9347 5.31716 11.9718C5.30331 12.009 5.29714 12.0486 5.29902 12.0882L6.07246 28.3211C6.14395 29.8234 7.37793 31 8.88144 31H23.1186C24.6221 31 25.8561 29.8234 25.9275 28.3211L26.701 12.0882C26.7029 12.0486 26.6967 12.009 26.6828 11.9718C26.669 11.9347 26.6477 11.9008 26.6204 11.8721C26.593 11.8434 26.5601 11.8205 26.5237 11.8049C26.4872 11.7893 26.448 11.7813 26.4084 11.7812H5.59164ZM19.75 14.125C19.75 13.607 20.1695 13.1875 20.6875 13.1875C21.2055 13.1875 21.625 13.607 21.625 14.125V26.3125C21.625 26.8305 21.2055 27.25 20.6875 27.25C20.1695 27.25 19.75 26.8305 19.75 26.3125V14.125ZM15.0625 14.125C15.0625 13.607 15.482 13.1875 16 13.1875C16.518 13.1875 16.9375 13.607 16.9375 14.125V26.3125C16.9375 26.8305 16.518 27.25 16 27.25C15.482 27.25 15.0625 26.8305 15.0625 26.3125V14.125ZM10.375 14.125C10.375 13.607 10.7945 13.1875 11.3125 13.1875C11.8305 13.1875 12.25 13.607 12.25 14.125V26.3125C12.25 26.8305 11.8305 27.25 11.3125 27.25C10.7945 27.25 10.375 26.8305 10.375 26.3125V14.125Z" fill="white"/>
</g>
</g>
</svg>
