<svg width="32" height="32" viewBox="0 0 32 32" fill="none" xmlns="http://www.w3.org/2000/svg">
<g id="Frame">
<g id="Group">
<path id="Vector" d="M30 28.25C30 29.2165 29.2165 30 28.25 30H3.75C2.78351 30 2 29.2165 2 28.25C2 27.2835 2.78351 26.5 3.75 26.5H28.25C29.2165 26.5 30 27.2835 30 28.25ZM14.7626 22.7062C15.1043 23.048 15.5521 23.2188 16 23.2188C16.4478 23.2188 16.8958 23.0479 17.2374 22.7062L23.4378 16.5059C24.1212 15.8225 24.1212 14.7145 23.4378 14.031C22.7543 13.3476 21.6463 13.3476 20.9629 14.031L17.75 17.2439V3.75C17.75 2.78351 16.9665 2 16 2C15.0335 2 14.25 2.78351 14.25 3.75V17.2439L11.0371 14.031C10.3537 13.3476 9.24566 13.3476 8.56223 14.031C7.8788 14.7145 7.8788 15.8225 8.56223 16.5059L14.7626 22.7062Z" fill="white"/>
</g>
</g>
</svg>
