<svg width="22" height="22" viewBox="0 0 22 22" fill="none" xmlns="http://www.w3.org/2000/svg">
<g id="Frame">
<g id="Group">
<path id="Vector" d="M10.2707 16.5417C10.3665 16.6374 10.4801 16.7134 10.6053 16.7652C10.7304 16.8171 10.8645 16.8437 10.9999 16.8437C11.1353 16.8437 11.2694 16.8171 11.3946 16.7652C11.5197 16.7134 11.6334 16.6374 11.7291 16.5417L15.6182 12.6526C15.8116 12.4592 15.9202 12.1969 15.9202 11.9234C15.9202 11.6499 15.8116 11.3876 15.6182 11.1942C15.4248 11.0008 15.1625 10.8922 14.889 10.8922C14.6155 10.8922 14.3532 11.0008 14.1598 11.1942L12.0312 13.3228V2.0625C12.0312 1.789 11.9225 1.52669 11.7291 1.3333C11.5357 1.1399 11.2734 1.03125 10.9999 1.03125C10.7264 1.03125 10.4641 1.1399 10.2707 1.3333C10.0773 1.52669 9.96866 1.789 9.96866 2.0625V13.3228L7.84004 11.1942C7.64664 11.0008 7.38434 10.8922 7.11083 10.8922C6.83733 10.8922 6.57503 11.0008 6.38163 11.1942C6.18824 11.3876 6.07959 11.6499 6.07959 11.9234C6.07959 12.1969 6.18824 12.4592 6.38163 12.6526L10.2707 16.5417Z" fill="white"/>
<path id="Vector_2" d="M19.9375 9.96875C19.664 9.96875 19.4017 10.0774 19.2083 10.2708C19.0149 10.4642 18.9062 10.7265 18.9062 11V18.9062H3.09375V11C3.09375 10.7265 2.9851 10.4642 2.7917 10.2708C2.59831 10.0774 2.336 9.96875 2.0625 9.96875C1.789 9.96875 1.52669 10.0774 1.3333 10.2708C1.1399 10.4642 1.03125 10.7265 1.03125 11V19.25C1.03125 19.7058 1.21233 20.143 1.53466 20.4653C1.85699 20.7877 2.29416 20.9688 2.75 20.9688H19.25C19.7058 20.9688 20.143 20.7877 20.4653 20.4653C20.7877 20.143 20.9688 19.7058 20.9688 19.25V11C20.9688 10.7265 20.8601 10.4642 20.6667 10.2708C20.4733 10.0774 20.211 9.96875 19.9375 9.96875Z" fill="white"/>
</g>
</g>
</svg>
