<svg width="32" height="32" viewBox="0 0 32 32" fill="none" xmlns="http://www.w3.org/2000/svg">
<g id="Frame">
<g id="Group">
<path id="Vector" d="M26.667 11.4667L15.4937 22.64C15.107 23.0267 14.6003 23.2667 14.0537 23.32L10.147 23.68H10.0003C9.56033 23.68 9.13366 23.5067 8.82699 23.1867C8.48033 22.84 8.30699 22.3467 8.34699 21.8533L8.70699 17.9467C8.76033 17.4 9.00033 16.8933 9.38699 16.5067L20.5337 5.33333L26.667 11.4667ZM29.2537 3.69333L28.307 2.74666C27.6179 2.06126 26.6856 1.67651 25.7137 1.67651C24.7418 1.67651 23.8094 2.06126 23.1203 2.74666L21.947 3.92L28.0803 10.0533L29.2537 8.88C29.5952 8.54135 29.8663 8.13842 30.0513 7.69446C30.2363 7.2505 30.3315 6.7743 30.3315 6.29333C30.3315 5.81237 30.2363 5.33616 30.0513 4.8922C29.8663 4.44824 29.5952 4.04531 29.2537 3.70666V3.69333ZM27.667 25.3467V17.6C27.667 17.0533 27.2137 16.6 26.667 16.6C26.1203 16.6 25.667 17.0533 25.667 17.6V25.3467C25.667 27 24.3203 28.3467 22.667 28.3467H6.66699C5.01366 28.3467 3.66699 27 3.66699 25.3467V9.33333C3.66699 7.68 5.01366 6.33333 6.66699 6.33333H14.4137C14.9603 6.33333 15.4137 5.88 15.4137 5.33333C15.4137 4.78666 14.9603 4.33333 14.4137 4.33333H6.66699C3.90699 4.33333 1.66699 6.57333 1.66699 9.33333V25.3333C1.66699 28.0933 3.90699 30.3333 6.66699 30.3333H22.667C25.427 30.3333 27.667 28.0933 27.667 25.3333V25.3467Z" fill="white"/>
</g>
</g>
</svg>
