<svg width="54" height="54" viewBox="0 0 54 54" fill="none" xmlns="http://www.w3.org/2000/svg">
<g clip-path="url(#clip0_710_300)">
<path d="M27 54C41.9117 54 54 41.9117 54 27C54 12.0883 41.9117 0 27 0C12.0883 0 0 12.0883 0 27C0 41.9117 12.0883 54 27 54Z" fill="#0F60E5"/>
<path d="M33.7881 28.0569H28.9702V45.7071H21.6708V28.0569H18.1992V21.8539H21.6708V17.8398C21.6708 14.9694 23.0344 10.4745 29.0352 10.4745L34.4421 10.4971V16.5182H30.5191C29.8756 16.5182 28.9707 16.8397 28.9707 18.209V21.8597H34.4258L33.7881 28.0569Z" fill="white"/>
</g>
<defs>
<clipPath id="clip0_710_300">
<rect width="54" height="54" fill="white"/>
</clipPath>
</defs>
</svg>
