<svg width="28" height="28" viewBox="0 0 28 28" fill="none" xmlns="http://www.w3.org/2000/svg">
<g id="Frame" clip-path="url(#clip0_41_1095)">
<g id="Group">
<path id="Vector" d="M14 0C6.28043 0 0 6.28043 0 14C0 21.719 6.28043 28 14 28C21.719 28 28 21.719 28 14C28 6.28043 21.7201 0 14 0ZM17.4817 14.4929H15.204V22.6111H11.8289V14.4929H10.2245V11.6236H11.8289V9.76774C11.8289 8.43857 12.4605 6.36164 15.235 6.36164L17.736 6.37122V9.15645H15.9207C15.6252 9.15645 15.2051 9.3042 15.2051 9.93805V11.6242H17.7766L17.4817 14.4929Z" fill="#2BF6FA"/>
</g>
</g>
<defs>
<clipPath id="clip0_41_1095">
<rect width="28" height="28" fill="white"/>
</clipPath>
</defs>
</svg>
