<svg width="28" height="28" viewBox="0 0 28 28" fill="none" xmlns="http://www.w3.org/2000/svg">
<g id="Frame">
<g id="Group">
<path id="Vector" d="M26.978 8.64413C26.917 7.2626 26.6937 6.3129 26.3736 5.48987C26.0434 4.61631 25.5355 3.83422 24.8701 3.18404C24.2199 2.52375 23.4326 2.01065 22.5692 1.68569C21.7415 1.3657 20.7966 1.14222 19.4152 1.08137C18.0233 1.01524 17.5815 1 14.0515 1C10.5215 1 10.0796 1.01524 8.69296 1.07619C7.31148 1.13714 6.36173 1.36072 5.53896 1.68051C4.66514 2.01065 3.88305 2.51857 3.23287 3.18404C2.57258 3.83417 2.05973 4.62144 1.73451 5.4849C1.41453 6.3129 1.1911 7.25752 1.1302 8.63895C1.06412 10.0308 1.04883 10.4726 1.04883 14.0026C1.04883 17.5327 1.06412 17.9745 1.12502 19.3612C1.18597 20.7427 1.40955 21.6924 1.72959 22.5154C2.05973 23.389 2.57258 24.1711 3.23287 24.8213C3.88305 25.4815 4.67032 25.9946 5.53378 26.3196C6.36168 26.6396 7.3063 26.8631 8.68803 26.9239C10.0744 26.9851 10.5165 27.0001 14.0465 27.0001C17.5766 27.0001 18.0184 26.9851 19.4051 26.9239C20.7865 26.863 21.7363 26.6396 22.5591 26.3196C23.4232 25.9855 24.208 25.4745 24.8632 24.8194C25.5183 24.1643 26.0293 23.3795 26.3635 22.5154C26.6833 21.6875 26.9069 20.7426 26.9678 19.3612C27.0288 17.9745 27.044 17.5327 27.044 14.0026C27.044 10.4726 27.0388 10.0307 26.978 8.64413ZM24.6366 19.2596C24.5806 20.5294 24.3673 21.215 24.1896 21.6722C23.7527 22.8048 22.8537 23.7038 21.721 24.1407C21.2639 24.3185 20.5733 24.5318 19.3084 24.5875C17.937 24.6487 17.5258 24.6637 14.0567 24.6637C10.5875 24.6637 10.1711 24.6487 8.80465 24.5875C7.53486 24.5318 6.84918 24.3185 6.39205 24.1407C5.82842 23.9324 5.31537 23.6023 4.89888 23.1705C4.46715 22.749 4.13701 22.241 3.92866 21.6774C3.75089 21.2202 3.53762 20.5294 3.4819 19.2648C3.42074 17.8934 3.40571 17.4819 3.40571 14.0128C3.40571 10.5436 3.42074 10.1272 3.4819 8.761C3.53762 7.49121 3.75089 6.80553 3.92866 6.3484C4.13701 5.78452 4.46715 5.27157 4.90406 4.85498C5.32543 4.42325 5.83334 4.09311 6.39723 3.88501C6.85436 3.70724 7.54522 3.49392 8.80983 3.438C10.1812 3.37705 10.5927 3.36181 14.0616 3.36181C17.5359 3.36181 17.9471 3.37705 19.3136 3.438C20.5834 3.49397 21.2691 3.70719 21.7262 3.88496C22.2898 4.09311 22.8029 4.42325 23.2194 4.85498C23.6511 5.2766 23.9812 5.78452 24.1896 6.3484C24.3673 6.80553 24.5806 7.49614 24.6365 8.761C24.6975 10.1324 24.7127 10.5436 24.7127 14.0128C24.7127 17.4819 24.6975 17.8882 24.6366 19.2596Z" fill="#2BF6FA"/>
<path id="Vector_2" d="M14.0517 7.32356C10.3643 7.32356 7.37256 10.3151 7.37256 14.0027C7.37256 17.6902 10.3643 20.6817 14.0517 20.6817C17.7391 20.6817 20.7307 17.6902 20.7307 14.0027C20.7307 10.3151 17.7391 7.32356 14.0517 7.32356ZM14.0517 18.3352C11.6595 18.3352 9.71903 16.395 9.71903 14.0027C9.71903 11.6103 11.6595 9.67013 14.0516 9.67013C16.444 9.67013 18.3842 11.6103 18.3842 14.0027C18.3842 16.395 16.4439 18.3352 14.0517 18.3352ZM22.5543 7.05944C22.5543 7.92056 21.856 8.61875 20.9948 8.61875C20.1337 8.61875 19.4355 7.92056 19.4355 7.05944C19.4355 6.19822 20.1337 5.50024 20.9948 5.50024C21.856 5.50024 22.5543 6.19817 22.5543 7.05944Z" fill="#2BF6FA"/>
</g>
</g>
</svg>
