<svg width="54" height="54" viewBox="0 0 54 54" fill="none" xmlns="http://www.w3.org/2000/svg">
<g id="Frame" clip-path="url(#clip0_710_308)">
<g id="Group">
<path id="Vector" d="M27 53.9995C41.9117 53.9995 54 41.9112 54 26.9995C54 12.0878 41.9117 -0.000488281 27 -0.000488281C12.0883 -0.000488281 0 12.0878 0 26.9995C0 41.9112 12.0883 53.9995 27 53.9995Z" fill="#007AB9"/>
<path id="Vector_2" d="M43.1327 29.1721V40.3036H36.679V29.9181C36.679 27.3104 35.7472 25.5296 33.4104 25.5296C31.6272 25.5296 30.5679 26.7285 30.1001 27.8894C29.9302 28.3043 29.8864 28.8804 29.8864 29.4623V40.3031H23.4321C23.4321 40.3031 23.5187 22.7135 23.4321 20.8927H29.8868V23.6434C29.8738 23.665 29.8556 23.6862 29.844 23.7069H29.8868V23.6434C30.7445 22.3236 32.2741 20.4369 35.7034 20.4369C39.9494 20.4369 43.1327 23.2112 43.1327 29.1721ZM16.6804 11.5363C14.4727 11.5363 13.0283 12.9855 13.0283 14.8895C13.0283 16.7531 14.4308 18.2441 16.5957 18.2441H16.6376C18.8886 18.2441 20.2883 16.7531 20.2883 14.8895C20.2454 12.9855 18.8886 11.5363 16.6804 11.5363ZM13.4119 40.3036H19.8638V20.8927H13.4119V40.3036Z" fill="#F1F2F2"/>
</g>
</g>
<defs>
<clipPath id="clip0_710_308">
<rect width="54" height="54" fill="white"/>
</clipPath>
</defs>
</svg>
