<svg width="24" height="24" viewBox="0 0 24 24" fill="none" xmlns="http://www.w3.org/2000/svg">
<g id="Frame">
<g id="Group">
<path id="Vector" d="M13.5913 11.1593C13.4928 11.1595 13.3952 11.1402 13.3042 11.1025C13.2132 11.0648 13.1305 11.0094 13.061 10.9396C11.8914 9.76997 9.98827 9.7696 8.81827 10.9396C8.74909 11.0112 8.66633 11.0684 8.57483 11.1077C8.48332 11.147 8.38491 11.1677 8.28533 11.1685C8.18574 11.1694 8.08698 11.1504 7.99481 11.1127C7.90264 11.075 7.8189 11.0193 7.74848 10.9489C7.67806 10.8785 7.62237 10.7947 7.58466 10.7026C7.54695 10.6104 7.52797 10.5116 7.52884 10.412C7.5297 10.3125 7.55039 10.214 7.5897 10.1225C7.62901 10.031 7.68614 9.94828 7.75777 9.8791C9.5124 8.1241 12.3673 8.12447 14.1215 9.8791C14.2264 9.98399 14.2978 10.1176 14.3267 10.2631C14.3556 10.4085 14.3408 10.5593 14.284 10.6963C14.2273 10.8334 14.1312 10.9505 14.0079 11.0329C13.8846 11.1153 13.7396 11.1593 13.5913 11.1593ZM13.061 15.4377C11.9086 15.4377 10.7563 14.999 9.87915 14.1218C9.80752 14.0527 9.75038 13.9699 9.71107 13.8784C9.67177 13.7869 9.65108 13.6885 9.65021 13.5889C9.64935 13.4893 9.66832 13.3906 9.70603 13.2984C9.74374 13.2062 9.79943 13.1225 9.86985 13.0521C9.94027 12.9816 10.024 12.9259 10.1162 12.8882C10.2084 12.8505 10.3071 12.8315 10.4067 12.8324C10.5063 12.8333 10.6047 12.854 10.6962 12.8933C10.7877 12.9326 10.8705 12.9897 10.9396 13.0613C12.1093 14.231 14.0124 14.2313 15.1824 13.0613C15.2516 12.9897 15.3343 12.9326 15.4258 12.8933C15.5174 12.854 15.6158 12.8333 15.7153 12.8324C15.8149 12.8315 15.9137 12.8505 16.0059 12.8882C16.098 12.9259 16.1818 12.9816 16.2522 13.0521C16.3226 13.1225 16.3783 13.2062 16.416 13.2984C16.4537 13.3906 16.4727 13.4893 16.4718 13.5889C16.471 13.6885 16.4503 13.7869 16.411 13.8784C16.3717 13.9699 16.3145 14.0527 16.2429 14.1218C15.8253 14.5399 15.3292 14.8713 14.7832 15.0971C14.2372 15.3229 13.6519 15.4387 13.061 15.4377Z" fill="#2BF6FA"/>
<path id="Vector_2" d="M15.7122 14.3411C15.5639 14.3411 15.4189 14.2971 15.2956 14.2147C15.1723 14.1322 15.0762 14.0151 15.0195 13.8781C14.9627 13.7411 14.9479 13.5903 14.9768 13.4448C15.0057 13.2994 15.0771 13.1657 15.182 13.0609L19.3715 8.87135C19.4407 8.79972 19.5234 8.74258 19.6149 8.70328C19.7064 8.66397 19.8048 8.64328 19.9044 8.64242C20.004 8.64155 20.1028 8.66053 20.1949 8.69824C20.2871 8.73595 20.3708 8.79164 20.4413 8.86206C20.5117 8.93248 20.5674 9.01621 20.6051 9.10839C20.6428 9.20056 20.6618 9.29932 20.6609 9.3989C20.66 9.49849 20.6394 9.5969 20.6 9.68841C20.5607 9.77991 20.5036 9.86267 20.432 9.93185L16.2425 14.1214C16.173 14.1912 16.0903 14.2465 15.9993 14.2842C15.9083 14.322 15.8107 14.3413 15.7122 14.3411ZM9.40172 20.6516C9.25341 20.6516 9.10844 20.6076 8.98513 20.5252C8.86182 20.4427 8.76572 20.3256 8.70896 20.1886C8.65221 20.0516 8.63736 19.9008 8.66629 19.7553C8.69521 19.6099 8.76662 19.4762 8.87147 19.3714L11.2133 17.0295C11.2825 16.9578 11.3653 16.9007 11.4568 16.8614C11.5483 16.8221 11.6467 16.8014 11.7463 16.8005C11.8459 16.7997 11.9446 16.8187 12.0368 16.8564C12.129 16.8941 12.2127 16.9498 12.2831 17.0202C12.3536 17.0906 12.4093 17.1743 12.447 17.2665C12.4847 17.3587 12.5037 17.4574 12.5028 17.557C12.5019 17.6566 12.4812 17.755 12.4419 17.8465C12.4026 17.938 12.3455 18.0208 12.2738 18.09L9.93197 20.4319C9.86247 20.5017 9.77983 20.557 9.68882 20.5947C9.59781 20.6325 9.50024 20.6518 9.40172 20.6516ZM4.09847 15.3484C3.95016 15.3483 3.80519 15.3043 3.68188 15.2219C3.55857 15.1395 3.46247 15.0224 3.40571 14.8853C3.34896 14.7483 3.33411 14.5975 3.36304 14.4521C3.39196 14.3066 3.46337 14.173 3.56822 14.0681L7.75772 9.87898C7.82691 9.80735 7.90967 9.75021 8.00117 9.7109C8.09267 9.67159 8.19109 9.65091 8.29067 9.65004C8.39026 9.64918 8.48902 9.66815 8.58119 9.70586C8.67336 9.74357 8.7571 9.79926 8.82752 9.86968C8.89794 9.9401 8.95363 10.0238 8.99134 10.116C9.02905 10.2082 9.04803 10.3069 9.04716 10.4065C9.0463 10.5061 9.02561 10.6045 8.9863 10.696C8.94699 10.7875 8.88986 10.8703 8.81822 10.9395L4.62872 15.1286C4.4821 15.2749 4.2901 15.3484 4.09847 15.3484ZM12.2566 7.1906C12.1083 7.19057 11.9633 7.14657 11.84 7.06415C11.7167 6.98174 11.6206 6.86462 11.5638 6.72759C11.5071 6.59057 11.4922 6.43979 11.5212 6.29433C11.5501 6.14886 11.6215 6.01524 11.7263 5.91035L14.0682 3.5681C14.2089 3.42742 14.3997 3.34839 14.5987 3.34839C14.7976 3.34839 14.9884 3.42742 15.1291 3.5681C15.2698 3.70878 15.3488 3.89959 15.3488 4.09854C15.3488 4.29749 15.2698 4.4883 15.1291 4.62898L12.7872 6.97123C12.6464 7.11174 12.4555 7.19064 12.2566 7.1906Z" fill="#2BF6FA"/>
<path id="Vector_3" d="M6.75004 21.7257C5.59016 21.7257 4.43029 21.2944 3.56816 20.4319C1.84316 18.7069 1.84316 15.7928 3.56816 14.0678C3.63735 13.9962 3.72011 13.939 3.81161 13.8997C3.90311 13.8604 4.00153 13.8397 4.10111 13.8389C4.2007 13.838 4.29946 13.857 4.39163 13.8947C4.4838 13.9324 4.56754 13.9881 4.63796 14.0585C4.70838 14.1289 4.76407 14.2127 4.80178 14.3048C4.83949 14.397 4.85847 14.4958 4.8576 14.5953C4.85674 14.6949 4.83605 14.7933 4.79674 14.8848C4.75743 14.9763 4.7003 15.0591 4.62866 15.1283C3.47891 16.278 3.47891 18.2213 4.62866 19.371C5.77841 20.5208 7.72166 20.5208 8.87141 19.371C8.9406 19.2994 9.02336 19.2423 9.11486 19.203C9.20636 19.1637 9.30478 19.143 9.40436 19.1421C9.50395 19.1412 9.60271 19.1602 9.69488 19.1979C9.78705 19.2356 9.87079 19.2913 9.94121 19.3617C10.0116 19.4322 10.0673 19.5159 10.105 19.6081C10.1427 19.7002 10.1617 19.799 10.1609 19.8986C10.16 19.9982 10.1393 20.0966 10.1 20.1881C10.0607 20.2796 10.0035 20.3624 9.93191 20.4315C9.06979 21.2944 7.90991 21.7257 6.75004 21.7257ZM19.9017 10.1517C19.7534 10.1516 19.6084 10.1076 19.4851 10.0252C19.3618 9.9428 19.2657 9.82568 19.2089 9.68866C19.1522 9.55163 19.1373 9.40086 19.1662 9.25539C19.1952 9.10993 19.2666 8.9763 19.3714 8.87141C20.5212 7.72166 20.5212 5.77841 19.3714 4.62866C18.2217 3.47891 16.2784 3.47891 15.1287 4.62866C15.0595 4.7003 14.9767 4.75743 14.8852 4.79674C14.7937 4.83605 14.6953 4.85674 14.5957 4.8576C14.4961 4.85847 14.3974 4.83949 14.3052 4.80178C14.213 4.76407 14.1293 4.70838 14.0589 4.63796C13.9884 4.56754 13.9328 4.4838 13.895 4.39163C13.8573 4.29946 13.8384 4.2007 13.8392 4.10111C13.8401 4.00153 13.8608 3.90311 13.9001 3.81161C13.9394 3.72011 13.9965 3.63735 14.0682 3.56816C15.7932 1.84316 18.7073 1.84316 20.4323 3.56816C22.1573 5.29316 22.1573 8.20729 20.4323 9.93229C20.2857 10.0785 20.0937 10.1517 19.9017 10.1517Z" fill="#2BF6FA"/>
</g>
</g>
</svg>
