<svg width="28" height="28" viewBox="0 0 28 28" fill="none" xmlns="http://www.w3.org/2000/svg">
<g id="Frame">
<g id="Group">
<path id="Layer 2" d="M23.4545 1H4.54545C3.60514 1 2.70334 1.37354 2.03844 2.03844C1.37354 2.70334 1 3.60514 1 4.54545L1 23.4545C1 24.3949 1.37354 25.2967 2.03844 25.9616C2.70334 26.6265 3.60514 27 4.54545 27H23.4545C24.3949 27 25.2967 26.6265 25.9616 25.9616C26.6265 25.2967 27 24.3949 27 23.4545V4.54545C27 3.60514 26.6265 2.70334 25.9616 2.03844C25.2967 1.37354 24.3949 1 23.4545 1ZM9.86364 21.5755C9.86383 21.6476 9.8498 21.719 9.82234 21.7856C9.79489 21.8523 9.75455 21.9129 9.70363 21.964C9.65272 22.015 9.59224 22.0555 9.52565 22.0831C9.45905 22.1108 9.38767 22.125 9.31557 22.125H6.98C6.90778 22.1252 6.83623 22.1111 6.76947 22.0836C6.70271 22.056 6.64205 22.0155 6.59098 21.9645C6.53991 21.9134 6.49944 21.8527 6.47189 21.786C6.44434 21.7192 6.43026 21.6477 6.43045 21.5755V11.7841C6.43045 11.6383 6.48835 11.4986 6.59141 11.3955C6.69447 11.2924 6.83425 11.2345 6.98 11.2345H9.31557C9.46106 11.2349 9.60046 11.293 9.7032 11.396C9.80594 11.499 9.86364 11.6386 9.86364 11.7841V21.5755ZM8.14705 10.3068C7.70878 10.3068 7.28036 10.1769 6.91595 9.93337C6.55155 9.68988 6.26753 9.3438 6.09981 8.9389C5.9321 8.534 5.88821 8.08845 5.97371 7.65861C6.05922 7.22876 6.27026 6.83392 6.58016 6.52402C6.89006 6.21412 7.2849 6.00308 7.71474 5.91758C8.14459 5.83208 8.59013 5.87596 8.99504 6.04368C9.39994 6.21139 9.74602 6.49541 9.98951 6.85982C10.233 7.22422 10.363 7.65264 10.363 8.09091C10.363 8.6786 10.1295 9.24223 9.71393 9.65779C9.29837 10.0734 8.73474 10.3068 8.14705 10.3068ZM22.0718 21.6139C22.072 21.6803 22.0591 21.7461 22.0338 21.8074C22.0084 21.8688 21.9712 21.9246 21.9243 21.9715C21.8773 22.0185 21.8215 22.0557 21.7602 22.081C21.6988 22.1063 21.633 22.1193 21.5666 22.1191H19.0552C18.9888 22.1193 18.923 22.1063 18.8617 22.081C18.8003 22.0557 18.7445 22.0185 18.6975 21.9715C18.6506 21.9246 18.6134 21.8688 18.5881 21.8074C18.5627 21.7461 18.5498 21.6803 18.55 21.6139V17.0269C18.55 16.3415 18.7509 14.0251 16.7581 14.0251C15.2143 14.0251 14.8997 15.6102 14.8376 16.3223V21.6198C14.8376 21.7525 14.7854 21.8799 14.6923 21.9744C14.5991 22.069 14.4725 22.1231 14.3398 22.125H11.9141C11.8478 22.125 11.7822 22.1119 11.721 22.0865C11.6598 22.0611 11.6042 22.0239 11.5574 21.9769C11.5106 21.93 11.4735 21.8743 11.4483 21.813C11.423 21.7517 11.4101 21.6861 11.4103 21.6198V11.7412C11.4101 11.675 11.423 11.6093 11.4483 11.548C11.4735 11.4867 11.5106 11.431 11.5574 11.3841C11.6042 11.3372 11.6598 11.2999 11.721 11.2745C11.7822 11.2491 11.8478 11.236 11.9141 11.236H14.3398C14.4738 11.236 14.6023 11.2893 14.697 11.384C14.7918 11.4787 14.845 11.6073 14.845 11.7412V12.5951C15.4182 11.7339 16.2676 11.072 18.0802 11.072C22.0955 11.072 22.0689 14.8214 22.0689 16.8807L22.0718 21.6139Z" fill="#2BF6FA"/>
</g>
</g>
</svg>
