<svg width="24" height="24" viewBox="0 0 24 24" fill="none" xmlns="http://www.w3.org/2000/svg">
<g id="Frame">
<g id="Group">
<path id="Vector" fill-rule="evenodd" clip-rule="evenodd" d="M2.66699 5.33333C2.66699 4.97971 2.80747 4.64057 3.05751 4.39052C3.30756 4.14048 3.6467 4 4.00032 4H20.0002C20.3538 4 20.693 4.14048 20.943 4.39052C21.1931 4.64057 21.3335 4.97971 21.3335 5.33333C21.3335 5.68694 21.1931 6.02608 20.943 6.27613C20.693 6.52618 20.3538 6.66665 20.0002 6.66665H4.00032C3.6467 6.66665 3.30756 6.52618 3.05751 6.27613C2.80747 6.02608 2.66699 5.68694 2.66699 5.33333ZM2.66699 12C2.66699 11.6463 2.80747 11.3072 3.05751 11.0571C3.30756 10.8071 3.6467 10.6666 4.00032 10.6666H12.0003C12.3539 10.6666 12.693 10.8071 12.9431 11.0571C13.1931 11.3072 13.3336 11.6463 13.3336 12C13.3336 12.3536 13.1931 12.6927 12.9431 12.9428C12.693 13.1928 12.3539 13.3333 12.0003 13.3333H4.00032C3.6467 13.3333 3.30756 13.1928 3.05751 12.9428C2.80747 12.6927 2.66699 12.3536 2.66699 12ZM2.66699 18.6666C2.66699 18.313 2.80747 17.9738 3.05751 17.7238C3.30756 17.4737 3.6467 17.3333 4.00032 17.3333H20.0002C20.3538 17.3333 20.693 17.4737 20.943 17.7238C21.1931 17.9738 21.3335 18.313 21.3335 18.6666C21.3335 19.0202 21.1931 19.3593 20.943 19.6094C20.693 19.8594 20.3538 19.9999 20.0002 19.9999H4.00032C3.6467 19.9999 3.30756 19.8594 3.05751 19.6094C2.80747 19.3593 2.66699 19.0202 2.66699 18.6666Z" fill="white"/>
</g>
</g>
</svg>
