<svg width="24" height="24" viewBox="0 0 24 24" fill="none" xmlns="http://www.w3.org/2000/svg">
<g id="Frame">
<g id="Group">
<path id="Vector" d="M22.6054 4.36169H1.3946C0.647273 4.36169 0.0380859 4.9684 0.0380859 5.71821V18.2819C0.0380859 19.0316 0.647273 19.6384 1.3946 19.6384H22.6054C23.3527 19.6384 23.9619 19.0317 23.9619 18.2819V5.71821C23.9619 4.9684 23.3527 4.36169 22.6054 4.36169ZM18.3651 13.1461H18.8056C18.9027 13.1477 18.9953 13.1873 19.0634 13.2565C19.1315 13.3257 19.1697 13.4189 19.1697 13.5161C19.1697 13.6132 19.1315 13.7064 19.0634 13.7756C18.9953 13.8448 18.9027 13.8844 18.8056 13.886H18.3651C18.268 13.8844 18.1754 13.8448 18.1073 13.7756C18.0392 13.7064 18.001 13.6132 18.001 13.5161C18.001 13.4189 18.0392 13.3257 18.1073 13.2565C18.1754 13.1873 18.268 13.1477 18.3651 13.1461ZM16.7749 13.1461H17.2155C17.3126 13.1477 17.4052 13.1873 17.4733 13.2565C17.5414 13.3257 17.5796 13.4189 17.5796 13.5161C17.5796 13.6132 17.5414 13.7064 17.4733 13.7756C17.4052 13.8448 17.3126 13.8844 17.2155 13.886H16.7749C16.6779 13.8844 16.5853 13.8448 16.5171 13.7756C16.449 13.7064 16.4109 13.6132 16.4109 13.5161C16.4109 13.4189 16.449 13.3257 16.5171 13.2565C16.5853 13.1873 16.6779 13.1477 16.7749 13.1461ZM13.3699 13.1461H13.8105C13.9076 13.1477 14.0002 13.1873 14.0683 13.2565C14.1364 13.3257 14.1746 13.4189 14.1746 13.5161C14.1746 13.6132 14.1364 13.7064 14.0683 13.7756C14.0002 13.8448 13.9076 13.8844 13.8105 13.886H13.3699C13.2729 13.8844 13.1803 13.8448 13.1121 13.7756C13.044 13.7064 13.0059 13.6132 13.0059 13.5161C13.0059 13.4189 13.044 13.3257 13.1121 13.2565C13.1803 13.1873 13.2729 13.1477 13.3699 13.1461ZM3.6048 6.46671H11.8179C12.0222 6.46671 12.1878 6.63232 12.1878 6.83665C12.1878 7.04098 12.0222 7.20658 11.8179 7.20658H3.6048C3.40043 7.20658 3.23487 7.04098 3.23487 6.83665C3.23487 6.63232 3.40043 6.46671 3.6048 6.46671ZM7.49468 9.33869V11.2376C7.49468 11.5187 7.26687 11.7465 6.98585 11.7465H3.84335C3.56234 11.7465 3.33452 11.5187 3.33452 11.2376V9.33869C3.33452 9.05768 3.56234 8.82987 3.84335 8.82987H6.9859C7.26687 8.82987 7.49468 9.05768 7.49468 9.33869ZM4.04473 13.886H3.6041C3.55552 13.886 3.50741 13.8765 3.46252 13.8579C3.41763 13.8393 3.37684 13.8121 3.34249 13.7777C3.30813 13.7434 3.28089 13.7026 3.2623 13.6577C3.24371 13.6128 3.23415 13.5647 3.23416 13.5161C3.23415 13.4675 3.24371 13.4194 3.2623 13.3745C3.28089 13.3296 3.30813 13.2888 3.34249 13.2545C3.37684 13.2201 3.41763 13.1929 3.46252 13.1743C3.50741 13.1557 3.55552 13.1461 3.6041 13.1462H4.04473C4.09331 13.1461 4.14142 13.1557 4.18631 13.1743C4.2312 13.1929 4.27199 13.2201 4.30634 13.2545C4.34069 13.2888 4.36794 13.3296 4.38653 13.3745C4.40512 13.4194 4.41468 13.4675 4.41466 13.5161C4.41468 13.5647 4.40512 13.6128 4.38653 13.6577C4.36794 13.7026 4.34069 13.7434 4.30634 13.7777C4.27199 13.8121 4.2312 13.8393 4.18631 13.8579C4.14142 13.8765 4.09331 13.886 4.04473 13.886ZM5.63487 13.886H5.19434C5.14575 13.886 5.09764 13.8765 5.05275 13.8579C5.00786 13.8393 4.96708 13.8121 4.93272 13.7777C4.89837 13.7434 4.87112 13.7026 4.85253 13.6577C4.83395 13.6128 4.82439 13.5647 4.8244 13.5161C4.82439 13.4675 4.83395 13.4194 4.85253 13.3745C4.87112 13.3296 4.89837 13.2888 4.93272 13.2545C4.96708 13.2201 5.00786 13.1929 5.05275 13.1743C5.09764 13.1557 5.14575 13.1461 5.19434 13.1462H5.63487C5.68345 13.1461 5.73156 13.1557 5.77645 13.1743C5.82134 13.1929 5.86213 13.2201 5.89648 13.2545C5.93083 13.2888 5.95808 13.3296 5.97667 13.3745C5.99526 13.4194 6.00482 13.4675 6.0048 13.5161C6.00482 13.5647 5.99526 13.6128 5.97667 13.6577C5.95808 13.7026 5.93083 13.7434 5.89648 13.7777C5.86213 13.8121 5.82134 13.8393 5.77645 13.8579C5.73156 13.8765 5.68345 13.886 5.63487 13.886ZM7.22515 13.886H6.78452C6.73594 13.886 6.68783 13.8765 6.64294 13.8579C6.59805 13.8393 6.55726 13.8121 6.52291 13.7777C6.48856 13.7434 6.46131 13.7026 6.44272 13.6577C6.42413 13.6128 6.41457 13.5647 6.41459 13.5161C6.41457 13.4675 6.42413 13.4194 6.44272 13.3745C6.46131 13.3296 6.48856 13.2888 6.52291 13.2545C6.55726 13.2201 6.59805 13.1929 6.64294 13.1743C6.68783 13.1557 6.73594 13.1461 6.78452 13.1462H7.22515C7.27373 13.1461 7.32184 13.1557 7.36673 13.1743C7.41162 13.1929 7.45241 13.2201 7.48676 13.2545C7.52112 13.2888 7.54836 13.3296 7.56695 13.3745C7.58554 13.4194 7.5951 13.4675 7.59509 13.5161C7.5951 13.5647 7.58554 13.6128 7.56695 13.6577C7.54836 13.7026 7.52112 13.7434 7.48676 13.7777C7.45241 13.8121 7.41162 13.8393 7.36673 13.8579C7.32184 13.8765 7.27373 13.886 7.22515 13.886ZM10.6301 13.886H10.1895C10.1409 13.886 10.0928 13.8765 10.0479 13.8579C10.003 13.8393 9.96222 13.8121 9.92786 13.7777C9.89351 13.7434 9.86626 13.7026 9.84767 13.6577C9.82909 13.6128 9.81953 13.5647 9.81954 13.5161C9.81953 13.4675 9.82909 13.4194 9.84767 13.3745C9.86626 13.3296 9.89351 13.2888 9.92786 13.2545C9.96222 13.2201 10.003 13.1929 10.0479 13.1743C10.0928 13.1557 10.1409 13.1461 10.1895 13.1462H10.6301C10.6787 13.1461 10.7268 13.1557 10.7717 13.1743C10.8166 13.1929 10.8574 13.2201 10.8917 13.2545C10.9261 13.2888 10.9533 13.3296 10.9719 13.3745C10.9905 13.4194 11.0001 13.4675 11 13.5161C11.0001 13.5647 10.9905 13.6128 10.9719 13.6577C10.9533 13.7026 10.9261 13.7434 10.8917 13.7777C10.8574 13.8121 10.8166 13.8393 10.7717 13.8579C10.7268 13.8765 10.6787 13.886 10.6301 13.886ZM11.4098 13.5161C11.4098 13.4675 11.4193 13.4194 11.4379 13.3745C11.4565 13.3296 11.4837 13.2888 11.5181 13.2545C11.5525 13.2201 11.5932 13.1929 11.6381 13.1743C11.683 13.1557 11.7311 13.1461 11.7797 13.1462H12.2202C12.2693 13.1454 12.3181 13.1544 12.3636 13.1726C12.4092 13.1909 12.4507 13.218 12.4857 13.2524C12.5206 13.2868 12.5484 13.3279 12.5674 13.3732C12.5864 13.4184 12.5961 13.467 12.5961 13.5161C12.5961 13.5652 12.5864 13.6138 12.5674 13.659C12.5484 13.7043 12.5206 13.7454 12.4857 13.7798C12.4507 13.8142 12.4092 13.8413 12.3636 13.8596C12.3181 13.8778 12.2693 13.8868 12.2202 13.886H11.7797C11.7311 13.886 11.683 13.8765 11.6381 13.8579C11.5932 13.8393 11.5525 13.8121 11.5181 13.7777C11.4837 13.7434 11.4565 13.7026 11.4379 13.6577C11.4193 13.6128 11.4098 13.5647 11.4098 13.5161ZM20.3958 17.5333H15.1909C15.0938 17.5318 15.0012 17.4921 14.933 17.4229C14.8649 17.3537 14.8268 17.2605 14.8268 17.1634C14.8268 17.0663 14.8649 16.9731 14.933 16.9039C15.0012 16.8347 15.0938 16.795 15.1909 16.7935H20.3958C20.4929 16.795 20.5854 16.8347 20.6536 16.9039C20.7217 16.9731 20.7599 17.0663 20.7599 17.1634C20.7599 17.2605 20.7217 17.3537 20.6536 17.4229C20.5854 17.4921 20.4929 17.5318 20.3958 17.5333ZM20.3958 15.8447H12.1826C11.9783 15.8447 11.8127 15.6791 11.8127 15.4748C11.8127 15.2704 11.9783 15.1048 12.1826 15.1048H20.3958C20.4929 15.1064 20.5854 15.146 20.6536 15.2152C20.7217 15.2845 20.7599 15.3777 20.7599 15.4748C20.7599 15.5719 20.7217 15.6651 20.6536 15.7343C20.5854 15.8035 20.4929 15.8432 20.3958 15.8447ZM20.3958 13.886H19.9552C19.8581 13.8845 19.7655 13.8448 19.6974 13.7756C19.6293 13.7064 19.5911 13.6132 19.5911 13.5161C19.5911 13.419 19.6293 13.3258 19.6974 13.2566C19.7655 13.1874 19.8581 13.1477 19.9552 13.1462H20.3958C20.4929 13.1477 20.5854 13.1874 20.6536 13.2566C20.7217 13.3258 20.7599 13.419 20.7599 13.5161C20.7599 13.6132 20.7217 13.7064 20.6536 13.7756C20.5854 13.8448 20.4929 13.8845 20.3958 13.886Z" fill="#262E55" fill-opacity="0.4"/>
</g>
</g>
</svg>
