<svg width="22" height="22" viewBox="0 0 22 22" fill="none" xmlns="http://www.w3.org/2000/svg">
<g id="Component 2">
<path id="Vector" d="M20.8999 9.89997H12.1V1.09993C12.1 0.492864 11.6072 0 10.9999 0C10.3928 0 9.89997 0.492864 9.89997 1.09993V9.89997H1.09993C0.492864 9.89997 0 10.3928 0 10.9999C0 11.6072 0.492864 12.1 1.09993 12.1H9.89997V20.8999C9.89997 21.5071 10.3928 22 10.9999 22C11.6072 22 12.1 21.5071 12.1 20.8999V12.1H20.8999C21.5071 12.1 22 11.6072 22 10.9999C22 10.3928 21.5071 9.89997 20.8999 9.89997Z" fill="white"/>
</g>
</svg>
