<svg width="32" height="32" viewBox="0 0 32 32" fill="none" xmlns="http://www.w3.org/2000/svg">
<g id="Frame">
<g id="Group">
<path id="Vector" d="M15.9995 13.9463L16.5487 12.9951C16.7139 12.7089 16.6037 12.4563 16.5487 12.3609C16.4937 12.2656 16.3299 12.0438 15.9995 12.0438C15.669 12.0438 15.5053 12.2655 15.4503 12.3609C15.3953 12.4563 15.285 12.7089 15.4503 12.9951L15.9995 13.9463ZM9.99057 21.8175C9.93555 21.9128 9.82534 22.1654 9.99057 22.4517C10.1557 22.7378 10.4296 22.7687 10.5397 22.7687C10.6498 22.7687 10.9237 22.7378 11.0889 22.4516L11.6381 21.5004H10.5397C10.2093 21.5004 10.0457 21.7222 9.99057 21.8175ZM14.6827 19.7426H17.3163L15.9995 17.4619L14.6827 19.7426Z" fill="white"/>
<path id="Vector_2" d="M20.6875 8.61719C20.2021 8.61719 19.8086 8.22367 19.8086 7.73828V1H7.21094C5.75705 1 4.57422 2.18283 4.57422 3.63672V28.3633C4.57422 29.8172 5.75705 31 7.21094 31H24.7891C26.2429 31 27.4258 29.8172 27.4258 28.3633V8.61719H20.6875ZM23.5312 23.3305C23.0989 24.0794 22.3245 24.5265 21.4598 24.5265C20.595 24.5265 19.8206 24.0794 19.3882 23.3305L18.3316 21.5004H13.6684L12.6118 23.3305C12.1794 24.0794 11.405 24.5265 10.5402 24.5265H10.5402C9.67545 24.5265 8.90107 24.0794 8.46877 23.3305C8.03641 22.5817 8.03635 21.6874 8.46877 20.9386C8.90113 20.1897 9.67551 19.7426 10.5402 19.7426H12.6535L14.9851 15.7041L13.9285 13.874C13.4961 13.1251 13.4961 12.2309 13.9285 11.482C14.3608 10.7331 15.1352 10.286 16 10.286C16.8648 10.286 17.6392 10.7331 18.0715 11.482C18.5039 12.2309 18.5039 13.1251 18.0715 13.874L17.0148 15.7041L19.3465 19.7426H21.4597C22.3244 19.7426 23.0988 20.1897 23.5312 20.9386C23.9636 21.6875 23.9635 22.5817 23.5312 23.3305Z" fill="white"/>
<path id="Vector_3" d="M21.4597 21.5005H20.3613L20.9105 22.4517C21.0758 22.7378 21.3496 22.7687 21.4597 22.7687C21.5698 22.7687 21.8437 22.7378 22.0089 22.4517C22.1741 22.1654 22.0639 21.9128 22.0089 21.8175C21.9538 21.7222 21.7901 21.5005 21.4597 21.5005ZM21.5664 1.51465V6.8594H26.9108L21.5664 1.51465Z" fill="white"/>
</g>
</g>
</svg>
