<svg width="22" height="22" viewBox="0 0 22 22" fill="none" xmlns="http://www.w3.org/2000/svg">
<g id="Frame">
<g id="Group">
<path id="Vector" d="M8.516 12.1825L3.66683 17.0409V15.5834C3.66683 15.3403 3.57025 15.1071 3.39834 14.9352C3.22644 14.7633 2.99328 14.6667 2.75016 14.6667C2.50705 14.6667 2.27389 14.7633 2.10198 14.9352C1.93007 15.1071 1.8335 15.3403 1.8335 15.5834V19.25C1.83494 19.3698 1.85986 19.4882 1.90683 19.5984C1.99985 19.8224 2.17784 20.0004 2.40183 20.0934C2.51203 20.1403 2.63038 20.1653 2.75016 20.1667H6.41683C6.65994 20.1667 6.8931 20.0701 7.06501 19.8982C7.23692 19.7263 7.3335 19.4932 7.3335 19.25C7.3335 19.0069 7.23692 18.7738 7.06501 18.6019C6.8931 18.43 6.65994 18.3334 6.41683 18.3334H4.95933L9.81766 13.4842C9.99027 13.3116 10.0872 13.0775 10.0872 12.8334C10.0872 12.5893 9.99027 12.3552 9.81766 12.1825C9.64505 12.0099 9.41094 11.913 9.16683 11.913C8.92272 11.913 8.68861 12.0099 8.516 12.1825ZM4.95933 3.66671H6.41683C6.65994 3.66671 6.8931 3.57013 7.06501 3.39822C7.23692 3.22631 7.3335 2.99316 7.3335 2.75004C7.3335 2.50693 7.23692 2.27377 7.06501 2.10186C6.8931 1.92995 6.65994 1.83337 6.41683 1.83337H2.75016C2.63038 1.83482 2.51203 1.85974 2.40183 1.90671C2.17784 1.99973 1.99985 2.17772 1.90683 2.40171C1.85986 2.51191 1.83494 2.63025 1.8335 2.75004V6.41671C1.8335 6.65982 1.93007 6.89298 2.10198 7.06489C2.27389 7.2368 2.50705 7.33337 2.75016 7.33337C2.99328 7.33337 3.22644 7.2368 3.39834 7.06489C3.57025 6.89298 3.66683 6.65982 3.66683 6.41671V4.95921L8.516 9.81754C8.60121 9.90346 8.7026 9.97165 8.8143 10.0182C8.92601 10.0647 9.04582 10.0887 9.16683 10.0887C9.28784 10.0887 9.40765 10.0647 9.51936 10.0182C9.63106 9.97165 9.73245 9.90346 9.81766 9.81754C9.90358 9.73232 9.97178 9.63094 10.0183 9.51924C10.0649 9.40753 10.0888 9.28772 10.0888 9.16671C10.0888 9.0457 10.0649 8.92588 10.0183 8.81418C9.97178 8.70247 9.90358 8.60109 9.81766 8.51587L4.95933 3.66671ZM19.2502 14.6667C19.007 14.6667 18.7739 14.7633 18.602 14.9352C18.4301 15.1071 18.3335 15.3403 18.3335 15.5834V17.0409L13.4843 12.1825C13.3117 12.0099 13.0776 11.913 12.8335 11.913C12.5894 11.913 12.3553 12.0099 12.1827 12.1825C12.0101 12.3552 11.9131 12.5893 11.9131 12.8334C11.9131 13.0775 12.0101 13.3116 12.1827 13.4842L17.041 18.3334H15.5835C15.3404 18.3334 15.1072 18.43 14.9353 18.6019C14.7634 18.7738 14.6668 19.0069 14.6668 19.25C14.6668 19.4932 14.7634 19.7263 14.9353 19.8982C15.1072 20.0701 15.3404 20.1667 15.5835 20.1667H19.2502C19.37 20.1653 19.4883 20.1403 19.5985 20.0934C19.8225 20.0004 20.0005 19.8224 20.0935 19.5984C20.1405 19.4882 20.1654 19.3698 20.1668 19.25V15.5834C20.1668 15.3403 20.0703 15.1071 19.8983 14.9352C19.7264 14.7633 19.4933 14.6667 19.2502 14.6667ZM20.0935 2.40171C20.0005 2.17772 19.8225 1.99973 19.5985 1.90671C19.4883 1.85974 19.37 1.83482 19.2502 1.83337H15.5835C15.3404 1.83337 15.1072 1.92995 14.9353 2.10186C14.7634 2.27377 14.6668 2.50693 14.6668 2.75004C14.6668 2.99316 14.7634 3.22631 14.9353 3.39822C15.1072 3.57013 15.3404 3.66671 15.5835 3.66671H17.041L12.1827 8.51587C12.0967 8.60109 12.0286 8.70247 11.982 8.81418C11.9355 8.92588 11.9115 9.0457 11.9115 9.16671C11.9115 9.28772 11.9355 9.40753 11.982 9.51924C12.0286 9.63094 12.0967 9.73232 12.1827 9.81754C12.2679 9.90346 12.3693 9.97165 12.481 10.0182C12.5927 10.0647 12.7125 10.0887 12.8335 10.0887C12.9545 10.0887 13.0743 10.0647 13.186 10.0182C13.2977 9.97165 13.3991 9.90346 13.4843 9.81754L18.3335 4.95921V6.41671C18.3335 6.65982 18.4301 6.89298 18.602 7.06489C18.7739 7.2368 19.007 7.33337 19.2502 7.33337C19.4933 7.33337 19.7264 7.2368 19.8983 7.06489C20.0703 6.89298 20.1668 6.65982 20.1668 6.41671V2.75004C20.1654 2.63025 20.1405 2.51191 20.0935 2.40171Z" fill="white"/>
</g>
</g>
</svg>
