<svg width="22" height="22" viewBox="0 0 22 22" fill="none" xmlns="http://www.w3.org/2000/svg">
<g id="Frame" clip-path="url(#clip0_41_810)">
<g id="Group">
<path id="Vector" d="M21.7479 10.3917L21.7472 10.3909L17.2568 5.92212C16.9204 5.58735 16.3762 5.5886 16.0414 5.92504C15.7066 6.26145 15.7079 6.80556 16.0443 7.14037L19.0591 10.1406H0.859375C0.384742 10.1406 0 10.5254 0 11C0 11.4746 0.384742 11.8594 0.859375 11.8594H19.0591L16.0443 14.8596C15.7079 15.1944 15.7066 15.7385 16.0414 16.075C16.3763 16.4114 16.9205 16.4126 17.2568 16.0779L21.7472 11.6091L21.748 11.6083C22.0846 11.2724 22.0835 10.7265 21.7479 10.3917Z" fill="#2BF6FA"/>
</g>
</g>
<defs>
<clipPath id="clip0_41_810">
<rect width="22" height="22" fill="white"/>
</clipPath>
</defs>
</svg>
