<svg width="22" height="22" viewBox="0 0 22 22" fill="none" xmlns="http://www.w3.org/2000/svg">
<g id="Frame" clip-path="url(#clip0_602_45)">
<g id="Group">
<path id="Vector" d="M17.4453 14.2656C16.1717 14.2656 15.0493 14.8922 14.3444 15.8449L8.24957 12.7241C8.35076 12.3792 8.42188 12.0217 8.42188 11.6445C8.42188 11.1329 8.31699 10.6466 8.13579 10.1992L14.5143 6.36092C15.2241 7.194 16.2675 7.73438 17.4453 7.73438C19.5778 7.73438 21.3125 5.99968 21.3125 3.86719C21.3125 1.73469 19.5778 0 17.4453 0C15.3128 0 13.5781 1.73469 13.5781 3.86719C13.5781 4.35862 13.6793 4.82479 13.8472 5.25757L7.44971 9.10714C6.74046 8.29881 5.71214 7.77734 4.55469 7.77734C2.42219 7.77734 0.6875 9.51204 0.6875 11.6445C0.6875 13.777 2.42219 15.5117 4.55469 15.5117C5.84934 15.5117 6.99063 14.8668 7.69291 13.8872L13.7677 16.998C13.6558 17.3592 13.5781 17.7354 13.5781 18.1328C13.5781 20.2653 15.3128 22 17.4453 22C19.5778 22 21.3125 20.2653 21.3125 18.1328C21.3125 16.0003 19.5778 14.2656 17.4453 14.2656Z" fill="white"/>
</g>
</g>
<defs>
<clipPath id="clip0_602_45">
<rect width="22" height="22" fill="white"/>
</clipPath>
</defs>
</svg>
