<svg width="22" height="22" viewBox="0 0 22 22" fill="none" xmlns="http://www.w3.org/2000/svg">
<g id="Frame" clip-path="url(#clip0_602_42)">
<g id="Group">
<path id="Vector" d="M7.66667 13.4H2.66667C2.39394 13.4 2.1589 13.4913 1.99179 13.6585C1.82468 13.8256 1.73333 14.0606 1.73333 14.3333C1.73333 14.6061 1.82468 14.8411 1.99179 15.0082C2.1589 15.1753 2.39394 15.2667 2.66667 15.2667H5.42525L1.17929 19.5126C0.806904 19.885 0.806904 20.4483 1.17929 20.8207C1.55168 21.1931 2.11499 21.1931 2.48738 20.8207L6.73333 16.5748V19.3333C6.73333 19.6061 6.82468 19.8411 6.99179 20.0082C7.1589 20.1753 7.39394 20.2667 7.66667 20.2667C7.93939 20.2667 8.17443 20.1753 8.34154 20.0082C8.50866 19.8411 8.6 19.6061 8.6 19.3333V14.3333C8.6 14.0606 8.50866 13.8256 8.34154 13.6585C8.17443 13.4913 7.93939 13.4 7.66667 13.4ZM15.2667 19.3333V16.5748L19.5126 20.8207C19.885 21.1931 20.4483 21.1931 20.8207 20.8207C21.1931 20.4483 21.1931 19.885 20.8207 19.5126L16.5748 15.2667H19.3333C19.6061 15.2667 19.8411 15.1753 20.0082 15.0082C20.1753 14.8411 20.2667 14.6061 20.2667 14.3333C20.2667 14.0606 20.1753 13.8256 20.0082 13.6585C19.8411 13.4913 19.6061 13.4 19.3333 13.4H14.3333C14.0606 13.4 13.8256 13.4913 13.6585 13.6585C13.4913 13.8256 13.4 14.0606 13.4 14.3333V19.3333C13.4 19.6061 13.4913 19.8411 13.6585 20.0082C13.8256 20.1753 14.0606 20.2667 14.3333 20.2667C14.6061 20.2667 14.8411 20.1753 15.0082 20.0082C15.1753 19.8411 15.2667 19.6061 15.2667 19.3333ZM14.3333 8.6H19.3333C19.6061 8.6 19.8411 8.50866 20.0082 8.34154C20.1753 8.17443 20.2667 7.93939 20.2667 7.66667C20.2667 7.39394 20.1753 7.1589 20.0082 6.99179C19.8411 6.82468 19.6061 6.73333 19.3333 6.73333H16.5748L20.8207 2.48738C21.1931 2.11499 21.1931 1.55168 20.8207 1.17929C20.4483 0.806904 19.885 0.806904 19.5126 1.17929L15.2667 5.42525V2.66667C15.2667 2.39394 15.1753 2.1589 15.0082 1.99179C14.8411 1.82468 14.6061 1.73333 14.3333 1.73333C14.0606 1.73333 13.8256 1.82468 13.6585 1.99179C13.4913 2.1589 13.4 2.39394 13.4 2.66667V7.66667C13.4 7.93939 13.4913 8.17443 13.6585 8.34154C13.8256 8.50866 14.0606 8.6 14.3333 8.6ZM7.66667 1.73333C7.39394 1.73333 7.1589 1.82468 6.99179 1.99179C6.82468 2.1589 6.73333 2.39394 6.73333 2.66667V5.42525L2.48738 1.17929C2.11499 0.806904 1.55168 0.806904 1.17929 1.17929C0.806904 1.55168 0.806904 2.11499 1.17929 2.48738L5.42525 6.73333H2.66667C2.39394 6.73333 2.1589 6.82468 1.99179 6.99179C1.82468 7.1589 1.73333 7.39394 1.73333 7.66667C1.73333 7.93939 1.82468 8.17443 1.99179 8.34154C2.1589 8.50866 2.39394 8.6 2.66667 8.6H7.66667C7.93939 8.6 8.17443 8.50866 8.34154 8.34154C8.50866 8.17443 8.6 7.93939 8.6 7.66667V2.66667C8.6 2.39394 8.50866 2.1589 8.34154 1.99179C8.17443 1.82468 7.93939 1.73333 7.66667 1.73333Z" fill="white" stroke="white" stroke-width="0.2"/>
</g>
</g>
<defs>
<clipPath id="clip0_602_42">
<rect width="22" height="22" fill="white"/>
</clipPath>
</defs>
</svg>
