<svg width="54" height="54" viewBox="0 0 54 54" fill="none" xmlns="http://www.w3.org/2000/svg">
<g clip-path="url(#clip0_710_304)">
<path d="M27 0C12.0888 0 0 12.0888 0 27C0 41.9112 12.0888 54 27 54C41.9112 54 54 41.9112 54 27C54 12.0888 41.9112 0 27 0Z" fill="black"/>
<path d="M29.9534 24.5566L41.5118 11.121H38.7729L28.7367 22.787L20.7209 11.121H11.4756L23.5971 28.762L11.4756 42.8514H14.2147L24.8131 30.5317L33.2784 42.8514H42.5237L29.9527 24.5566H29.9534ZM15.2016 13.183H19.4087L38.7741 40.8832H34.567L15.2016 13.183Z" fill="white"/>
</g>
<defs>
<clipPath id="clip0_710_304">
<rect width="54" height="54" fill="white"/>
</clipPath>
</defs>
</svg>
