<svg width="28" height="28" viewBox="0 0 28 28" fill="none" xmlns="http://www.w3.org/2000/svg">
<g id="Frame" clip-path="url(#clip0_154_2)">
<g id="Group">
<path id="Vector" d="M14.9363 13.522L21.2373 22.5347H18.6514L13.5096 15.1803V15.1798L12.7547 14.1002L6.74829 5.50854H9.33424L14.1814 12.4424L14.9363 13.522Z" fill="#2BF6FA"/>
<path id="Vector_2" d="M24.9745 0H3.02546C1.35459 0 0 1.35459 0 3.02546V24.9745C0 26.6454 1.35459 28 3.02546 28H24.9745C26.6454 28 28 26.6454 28 24.9745V3.02546C28 1.35459 26.6454 0 24.9745 0ZM17.8593 23.7445L12.6561 16.172L6.14174 23.7445H4.45809L11.9086 15.0844L4.45809 4.24108H10.1407L15.0677 11.4118L21.2364 4.24108H22.9201L15.8156 12.4996H15.8151L23.5419 23.7445H17.8593Z" fill="#2BF6FA"/>
</g>
</g>
<defs>
<clipPath id="clip0_154_2">
<rect width="28" height="28" fill="white"/>
</clipPath>
</defs>
</svg>
