<svg width="54" height="54" viewBox="0 0 54 54" fill="none" xmlns="http://www.w3.org/2000/svg">
<g clip-path="url(#clip0_710_292)">
<path d="M27 54C41.9117 54 54 41.9117 54 27C54 12.0883 41.9117 0 27 0C12.0883 0 0 12.0883 0 27C0 41.9117 12.0883 54 27 54Z" fill="#10C554"/>
<path d="M38.9045 15.0954C36.0954 12.2583 32.3649 10.5184 28.3859 10.1895C24.4069 9.86062 20.4413 10.9645 17.2045 13.3019C13.9677 15.6394 11.6727 19.0565 10.7335 22.9371C9.79434 26.8176 10.2728 30.906 12.0825 34.4649L10.306 43.0895C10.2876 43.1754 10.287 43.2641 10.3045 43.3501C10.3219 43.4362 10.3569 43.5177 10.4073 43.5896C10.481 43.6988 10.5864 43.7828 10.7092 43.8305C10.832 43.8782 10.9664 43.8873 11.0945 43.8566L19.5474 41.8531C23.0962 43.617 27.1558 44.0646 31.0037 43.1163C34.8516 42.1681 38.2383 39.8854 40.5612 36.6745C42.8841 33.4635 43.9924 29.5326 43.6891 25.5812C43.3857 21.6298 41.6903 17.9142 38.9045 15.0954ZM36.269 36.1309C34.3253 38.0691 31.8225 39.3485 29.1132 39.7888C26.4039 40.2292 23.6248 39.8083 21.1674 38.5854L19.9892 38.0025L14.807 39.2298L14.8224 39.1653L15.8962 33.9494L15.3194 32.8111C14.0638 30.3451 13.6209 27.545 14.0541 24.8119C14.4873 22.0788 15.7744 19.5529 17.731 17.596C20.1896 15.1382 23.5236 13.7575 27 13.7575C30.4764 13.7575 33.8104 15.1382 36.269 17.596C36.2899 17.62 36.3125 17.6426 36.3365 17.6635C38.7645 20.1276 40.12 23.4517 40.1074 26.9111C40.0947 30.3705 38.715 33.6846 36.269 36.1309Z" fill="white"/>
<path d="M35.8086 32.3048C35.1735 33.3051 34.1702 34.5293 32.9092 34.833C30.7001 35.3669 27.3097 34.8514 23.091 30.918L23.0388 30.872C19.3294 27.4326 18.366 24.5699 18.5992 22.2995C18.728 21.0109 19.8019 19.8449 20.707 19.084C20.8501 18.9619 21.0198 18.875 21.2025 18.8301C21.3852 18.7853 21.5759 18.7839 21.7593 18.8259C21.9426 18.8679 22.1136 18.9523 22.2586 19.0723C22.4035 19.1922 22.5183 19.3444 22.5939 19.5167L23.9593 22.5848C24.048 22.7838 24.0809 23.0031 24.0544 23.2193C24.0279 23.4355 23.9431 23.6405 23.8089 23.8121L23.1186 24.708C22.9705 24.893 22.8811 25.1181 22.862 25.3543C22.8428 25.5905 22.8948 25.827 23.0112 26.0335C23.3978 26.7115 24.3244 27.7087 25.3522 28.6322C26.5059 29.6754 27.7853 30.6296 28.5953 30.9548C28.8121 31.0434 29.0503 31.065 29.2795 31.0169C29.5086 30.9687 29.7181 30.8531 29.8809 30.6848L30.6817 29.8779C30.8362 29.7255 31.0284 29.6169 31.2386 29.563C31.4488 29.5091 31.6695 29.5119 31.8783 29.5711L35.1213 30.4915C35.3002 30.5464 35.4642 30.6415 35.6007 30.7694C35.7373 30.8974 35.8427 31.0549 35.909 31.2299C35.9753 31.4049 36.0008 31.5927 35.9834 31.779C35.966 31.9653 35.9062 32.1452 35.8086 32.3048Z" fill="white"/>
</g>
<defs>
<clipPath id="clip0_710_292">
<rect width="54" height="54" fill="white"/>
</clipPath>
</defs>
</svg>
